<?xml version="1.0" encoding="UTF-8" standalone="no"?>
<!-- Generator: Adobe Illustrator 19.0.0, SVG Export Plug-In . SVG Version: 6.00 Build 0)  -->

<svg
   xmlns:dc="http://purl.org/dc/elements/1.1/"
   xmlns:cc="http://creativecommons.org/ns#"
   xmlns:rdf="http://www.w3.org/1999/02/22-rdf-syntax-ns#"
   xmlns:svg="http://www.w3.org/2000/svg"
   xmlns="http://www.w3.org/2000/svg"
   xmlns:sodipodi="http://sodipodi.sourceforge.net/DTD/sodipodi-0.dtd"
   xmlns:inkscape="http://www.inkscape.org/namespaces/inkscape"
   version="1.1"
   id="Layer_1"
   x="0px"
   y="0px"
   viewBox="0 0 329.942 329.942"
   style="enable-background:new 0 0 329.942 329.942;"
   xml:space="preserve"
   sodipodi:docname="star-svgrepo-com.svg"
   inkscape:version="0.92.4 (unknown)"><metadata
   id="metadata1950"><rdf:RDF><cc:Work
       rdf:about=""><dc:format>image/svg+xml</dc:format><dc:type
         rdf:resource="http://purl.org/dc/dcmitype/StillImage" /></cc:Work></rdf:RDF></metadata><defs
   id="defs1948" /><sodipodi:namedview
   pagecolor="#ffffff"
   bordercolor="#666666"
   borderopacity="1"
   objecttolerance="10"
   gridtolerance="10"
   guidetolerance="10"
   inkscape:pageopacity="0"
   inkscape:pageshadow="2"
   inkscape:window-width="1366"
   inkscape:window-height="713"
   id="namedview1946"
   showgrid="false"
   inkscape:zoom="0.71527726"
   inkscape:cx="164.97099"
   inkscape:cy="164.97099"
   inkscape:window-x="0"
   inkscape:window-y="27"
   inkscape:window-maximized="1"
   inkscape:current-layer="Layer_1" />
<path
   id="XMLID_16_"
   d="M329.208,126.666c-1.765-5.431-6.459-9.389-12.109-10.209l-95.822-13.922l-42.854-86.837  c-2.527-5.12-7.742-8.362-13.451-8.362c-5.71,0-10.925,3.242-13.451,8.362l-42.851,86.836l-95.825,13.922  c-5.65,0.821-10.345,4.779-12.109,10.209c-1.764,5.431-0.293,11.392,3.796,15.377l69.339,67.582L57.496,305.07  c-0.965,5.628,1.348,11.315,5.967,14.671c2.613,1.899,5.708,2.865,8.818,2.865c2.387,0,4.784-0.569,6.979-1.723l85.711-45.059  l85.71,45.059c2.208,1.161,4.626,1.714,7.021,1.723c8.275-0.012,14.979-6.723,14.979-15c0-1.152-0.13-2.275-0.376-3.352  l-16.233-94.629l69.339-67.583C329.501,138.057,330.972,132.096,329.208,126.666z"
   style="fill:#ffb802;fill-opacity:1" />
<g
   id="g1915">
</g>
<g
   id="g1917">
</g>
<g
   id="g1919">
</g>
<g
   id="g1921">
</g>
<g
   id="g1923">
</g>
<g
   id="g1925">
</g>
<g
   id="g1927">
</g>
<g
   id="g1929">
</g>
<g
   id="g1931">
</g>
<g
   id="g1933">
</g>
<g
   id="g1935">
</g>
<g
   id="g1937">
</g>
<g
   id="g1939">
</g>
<g
   id="g1941">
</g>
<g
   id="g1943">
</g>
</svg>