<?xml version="1.0" encoding="UTF-8" standalone="no"?>
<svg
   xmlns:osb="http://www.openswatchbook.org/uri/2009/osb"
   xmlns:dc="http://purl.org/dc/elements/1.1/"
   xmlns:cc="http://creativecommons.org/ns#"
   xmlns:rdf="http://www.w3.org/1999/02/22-rdf-syntax-ns#"
   xmlns:svg="http://www.w3.org/2000/svg"
   xmlns="http://www.w3.org/2000/svg"
   xmlns:sodipodi="http://sodipodi.sourceforge.net/DTD/sodipodi-0.dtd"
   xmlns:inkscape="http://www.inkscape.org/namespaces/inkscape"
   viewBox="0 0 21 21.125"
   version="1.1"
   id="svg873"
   sodipodi:docname="chevron-left.svg"
   inkscape:version="0.92.3 (2405546, 2018-03-11)">
  <metadata
     id="metadata877">
    <rdf:RDF>
      <cc:Work
         rdf:about="">
        <dc:format>image/svg+xml</dc:format>
        <dc:type
           rdf:resource="http://purl.org/dc/dcmitype/StillImage" />
        <dc:title></dc:title>
      </cc:Work>
    </rdf:RDF>
  </metadata>
  <sodipodi:namedview
     pagecolor="#ffffff"
     bordercolor="#666666"
     borderopacity="1"
     objecttolerance="10"
     gridtolerance="10"
     guidetolerance="10"
     inkscape:pageopacity="0"
     inkscape:pageshadow="2"
     inkscape:window-width="1853"
     inkscape:window-height="1025"
     id="namedview875"
     showgrid="false"
     inkscape:zoom="39.952663"
     inkscape:cx="10.5"
     inkscape:cy="10.5625"
     inkscape:window-x="67"
     inkscape:window-y="27"
     inkscape:window-maximized="1"
     inkscape:current-layer="svg873" />
  <defs
     id="defs868">
    <linearGradient
       id="linearGradient2371"
       osb:paint="solid">
      <stop
         style="stop-color:#000000;stop-opacity:1;"
         offset="0"
         id="stop2369" />
    </linearGradient>
    <style
       id="style866">
      .cls-1 {
        fill: none;
      }

      .cls-2 {
        fill: #1d1d1d;
      }
    </style>
  </defs>
  <g
     id="Group_10"
     data-name="Group 10"
     transform="translate(-356 -306)"
     style="stroke:none;stroke-opacity:1">
    <rect
       id="Rectangle_1"
       data-name="Rectangle 1"
       class="cls-1"
       width="21"
       height="21"
       transform="translate(356 306)"
       style="stroke:none;stroke-opacity:1" />
    <path
       id="angle-chevron-left_copy"
       data-name="angle-chevron-left copy"
       class="cls-2"
       d="M4.6,10.6l7.3-7.3a2,2,0,0,0,0-2.7A2,2,0,0,0,9.2.6L.6,9.3h0A2,2,0,0,0,.6,12l8.6,8.6a1.936,1.936,0,0,0,1.3.6,1.612,1.612,0,0,0,1.3-.6,2,2,0,0,0,0-2.7Z"
       transform="translate(359.925 305.925)"
       style="stroke:none;stroke-opacity:1" />
  </g>
  <path
     style="opacity:1;fill:#00bfec;fill-opacity:0.94117647;stroke:#02b6e0;stroke-width:0.02645669;stroke-opacity:1;stroke-miterlimit:4;stroke-dasharray:none"
     d="M 14.240198,21.095993 C 13.946376,21.042367 13.66909,20.929986 13.418454,20.762949 13.285318,20.67422 4.6350813,12.040825 4.4595528,11.82149 4.1212386,11.398743 3.9639752,10.869065 4.026354,10.362434 4.0888987,9.8544556 4.2516825,9.5415708 4.6922943,9.0824389 5.1146667,8.6423131 11.140721,2.5442199 12.327618,1.3558379 c 1.071878,-1.07321826 1.115219,-1.10811744 1.553884,-1.25122772 0.271405,-0.08854339 0.719959,-0.11041411 0.997613,-0.04864193 0.355511,0.0790937 0.7198,0.26705886 0.934495,0.48217881 0.526207,0.52724784 0.669477,1.46148644 0.334054,2.17830664 -0.04013,0.085758 -0.108916,0.2096544 -0.152861,0.2753259 -0.04394,0.065671 -1.746681,1.7877013 -3.783859,3.8267334 l -3.7039606,3.707331 3.6133556,3.6612 c 1.987345,2.01366 3.661117,3.724359 3.719493,3.801555 0.259238,0.342813 0.385874,0.727326 0.388323,1.179085 0.0019,0.35 -0.04301,0.549288 -0.194588,0.863522 -0.311221,0.645192 -0.855143,1.04156 -1.475474,1.075212 -0.110566,0.006 -0.253618,0.0013 -0.317895,-0.01043 z"
     id="path2573"
     inkscape:connector-curvature="0" />
  <path
     style="opacity:1;fill:#00bfec;fill-opacity:0.94117647;stroke:#02b6e0;stroke-width:0.0006622;stroke-miterlimit:4;stroke-dasharray:none;stroke-opacity:1"
     d="M 14.196254,21.09278 C 14.009446,21.05613 13.841367,20.99365 13.606952,20.873709 L 13.382461,20.758849 9.0790659,16.465377 C 6.7121989,14.103967 4.6761321,12.060203 4.5544731,11.923679 4.1041111,11.41829 3.9340475,10.857018 4.0426621,10.234515 4.1181887,9.8016503 4.2697667,9.5302444 4.6771901,9.0983696 4.9199366,8.8410548 5.6958656,8.0516421 7.449948,6.2774289 c 5.591607,-5.65577977 5.785384,-5.84855891 6.043495,-6.0123718 0.337639,-0.21428655 0.996176,-0.30601865 1.426859,-0.19875704 0.116975,0.02913239 0.327518,0.10962244 0.467876,0.17886677 0.425616,0.20997558 0.684378,0.51817754 0.851191,1.01382307 0.06169,0.1832959 0.0675,0.2341192 0.0687,0.6007109 0.0015,0.4597588 -0.03415,0.6181011 -0.219712,0.9759535 -0.10076,0.1943092 -0.210643,0.3072028 -3.838553,3.9437284 l -3.7348244,3.7436933 1.5164444,1.537758 c 1.998269,2.026355 5.175401,5.261053 5.554555,5.655197 0.479801,0.498771 0.609104,0.784249 0.629161,1.389079 0.01409,0.424736 -0.01982,0.598383 -0.180822,0.926096 -0.214272,0.436141 -0.487707,0.721889 -0.87633,0.915788 -0.294975,0.147175 -0.667122,0.203588 -0.961732,0.145786 z"
     id="path2602"
     inkscape:connector-curvature="0" />
  <path
     style="opacity:1;fill:#00bfec;fill-opacity:0.94117647;stroke:#02b6e0;stroke-width:0.0006622;stroke-miterlimit:4;stroke-dasharray:none;stroke-opacity:1"
     d="M 14.156828,21.08463 C 13.97138,21.041735 13.784725,20.96862 13.556117,20.849323 13.394403,20.764935 13.03574,20.412802 8.89918,16.277177 4.7701489,12.149079 4.408289,11.780702 4.3010355,11.596223 3.9891591,11.059788 3.9292574,10.472636 4.1288608,9.9085804 4.2660915,9.5207827 4.370113,9.3985295 5.7596579,7.9919579 13.081422,0.58047675 13.257348,0.40488175 13.50846,0.25772027 c 0.408248,-0.23924909 1.087556,-0.30645629 1.544261,-0.15278104 0.646114,0.21740907 1.003514,0.57316546 1.197984,1.19247727 0.0511,0.1627203 0.05861,0.2369227 0.05823,0.5747991 -4.93e-4,0.4393135 -0.03926,0.6143334 -0.207925,0.9386108 -0.114568,0.2202742 -0.235908,0.3448031 -4.414367,4.5303614 L 8.5132773,10.51995 8.8705314,10.882879 c 1.5710396,1.595998 3.9118566,3.972416 4.5117996,4.580421 2.406641,2.438974 2.589599,2.639219 2.714019,2.970447 0.123195,0.327967 0.164275,0.878954 0.08925,1.197033 -0.132008,0.559638 -0.566086,1.107002 -1.055625,1.33112 -0.299411,0.137075 -0.695281,0.187001 -0.973143,0.12273 z"
     id="path2604"
     inkscape:connector-curvature="0" />
  <path
     style="opacity:1;fill:#00bfec;fill-opacity:0.94117647;stroke:#02b6e0;stroke-width:0.0006622;stroke-miterlimit:4;stroke-dasharray:none;stroke-opacity:1"
     d="m 14.196254,21.09278 c -0.18624,-0.03654 -0.35453,-0.09898 -0.590078,-0.218922 L 13.380909,20.759148 8.9347774,16.315349 C 6.0310134,13.413108 4.4484074,11.813777 4.3726526,11.70501 4.1188645,11.34063 4.0226288,11.032271 4.0223358,10.582524 4.0220162,10.09196 4.1212633,9.7885906 4.4047794,9.4135045 4.5754555,9.1877035 4.9555825,8.7991106 9.588644,4.1141879 c 1.741589,-1.7610837 3.31858,-3.34163839 3.504425,-3.51234383 0.389805,-0.35805017 0.563225,-0.45721 0.933103,-0.53353937 0.464096,-0.09577256 0.891722,-0.04927386 1.292312,0.14052204 0.485211,0.22988923 0.765274,0.5569288 0.932221,1.08858976 0.05098,0.1623524 0.05867,0.2376868 0.05867,0.5747991 0,0.4392343 -0.03849,0.6124134 -0.208605,0.9386108 -0.116777,0.2239215 -0.206064,0.3156138 -4.338376,4.4552725 L 8.5143173,10.51995 10.994046,13.035427 c 3.809099,3.864011 4.800443,4.885181 4.931148,5.079505 0.209674,0.311732 0.295671,0.625101 0.295773,1.077781 7.5e-5,0.334342 -0.03907,0.527763 -0.159574,0.788591 -0.149198,0.322919 -0.363104,0.600378 -0.602583,0.781616 -0.372729,0.282081 -0.858803,0.409075 -1.262556,0.32986 z"
     id="path2606"
     inkscape:connector-curvature="0" />
  <path
     style="opacity:1;fill:#00bfec;fill-opacity:0.94117647;stroke:#02b6e0;stroke-width:0.0006622;stroke-miterlimit:4;stroke-dasharray:none;stroke-opacity:1"
     d="m 14.094254,21.070334 c -0.103248,-0.02772 -0.304872,-0.107101 -0.448055,-0.176403 L 13.385867,20.767926 9.2316713,16.620093 C 6.9468634,14.338785 4.9113222,12.295582 4.7082466,12.079643 4.3821796,11.732922 4.325633,11.659775 4.2245132,11.453903 4.0883902,11.176767 4.0332242,10.974033 4.0150311,10.684062 3.9983858,10.418761 4.055795,10.065629 4.1532972,9.8335666 4.2981636,9.4887741 4.4146669,9.3527228 5.5588332,8.1921949 9.1407952,4.559011 12.863006,0.80923835 13.114401,0.58068165 13.579714,0.15763952 13.820882,0.05343272 14.39468,0.0274841 c 0.365423,-0.01652533 0.606687,0.03080707 0.923804,0.1812362 0.483866,0.22952939 0.735124,0.51590695 0.921472,1.0502696 0.04794,0.1374633 0.06406,0.245504 0.07486,0.5015229 0.01795,0.4254746 -0.02622,0.6621996 -0.183629,0.9841681 -0.113202,0.2315528 -0.124532,0.2444746 -0.99857,1.1388477 -0.486237,0.4975509 -2.169014,2.1886389 -3.739505,3.7579736 -1.5704906,1.5693344 -2.8554373,2.8637608 -2.8554373,2.8765028 0,0.01274 0.2676693,0.294344 0.5948205,0.625782 4.4364758,4.494605 6.6304848,6.739193 6.7545068,6.91022 0.229582,0.316593 0.335007,0.677234 0.334396,1.143908 -4.58e-4,0.349769 -0.04325,0.540322 -0.187127,0.833291 -0.255807,0.520883 -0.656317,0.88121 -1.139073,1.02479 -0.226511,0.06737 -0.579861,0.07369 -0.800947,0.01434 z"
     id="path2608"
     inkscape:connector-curvature="0" />
  <path
     style="opacity:1;fill:#00bfec;fill-opacity:0.94117647;stroke:#02b6e0;stroke-width:0.0006622;stroke-miterlimit:4;stroke-dasharray:none;stroke-opacity:1"
     d="m 14.219402,21.104419 c -0.150608,-0.02929 -0.405638,-0.125569 -0.625741,-0.23624 L 13.35588,20.748619 8.898706,16.285055 C 5.8672972,13.249299 4.4103861,11.773491 4.344164,11.671437 4.052532,11.222008 3.9497556,10.716282 4.0464557,10.20652 4.1520475,9.6498855 4.253418,9.5132458 5.4944244,8.254769 8.920523,4.7804388 12.884574,0.78728935 13.12209,0.57111137 c 0.450231,-0.40978283 0.703282,-0.5178817 1.27259,-0.54362727 0.390152,-0.01764367 0.617823,0.032343 0.995107,0.21848281 0.326777,0.16122102 0.54701,0.37051112 0.699615,0.66485096 0.168709,0.32540073 0.209945,0.48085543 0.225144,0.84876443 0.01788,0.4328698 -0.02579,0.6686264 -0.182671,0.9861596 -0.145177,0.2938407 0.06184,0.079452 -4.272907,4.4250265 -2.4976528,2.5038904 -3.3202355,3.3428466 -3.3045843,3.3703606 0.011461,0.02015 1.0458728,1.076747 2.2986923,2.347997 4.122581,4.183226 4.93665,5.02047 5.065893,5.210107 0.20964,0.307601 0.303024,0.646848 0.302432,1.098682 -4.58e-4,0.349371 -0.04317,0.539944 -0.18677,0.833291 -0.256053,0.523072 -0.650162,0.877376 -1.139471,1.024386 -0.137714,0.04137 -0.557935,0.07174 -0.675758,0.04883 z"
     id="path2610"
     inkscape:connector-curvature="0" />
  <path
     style="opacity:1;fill:#00bfec;fill-opacity:0.94117647;stroke:#02b6e0;stroke-width:0.0006622;stroke-miterlimit:4;stroke-dasharray:none;stroke-opacity:1"
     d="m 14.206887,21.104715 c -0.188214,-0.04864 -0.408621,-0.133661 -0.613226,-0.236561 L 13.35588,20.74857 8.9111555,16.297545 C 6.4665572,13.849481 4.4252641,11.788946 4.3749486,11.718579 4.2562349,11.552556 4.1202948,11.263225 4.0646205,11.058086 4.0328083,10.940871 4.0206483,10.80444 4.0211184,10.570009 4.0222937,9.983905 4.1586672,9.6624136 4.6209966,9.1558353 5.1108076,8.6191454 12.762197,0.89432622 13.154572,0.54036341 c 0.450209,-0.40613409 0.714644,-0.5072368 1.327641,-0.50760152 0.327101,-1.9462e-4 0.397879,0.0072907 0.549684,0.05813304 0.659979,0.22104027 1.041353,0.59837037 1.231208,1.21815427 0.06611,0.2158175 0.06627,0.9103089 2.51e-4,1.124838 -0.06868,0.2231993 -0.199624,0.466343 -0.345614,0.6417686 -0.0718,0.086275 -1.756054,1.7891509 -3.742789,3.7841696 -1.986735,1.9950187 -3.6122457,3.6441876 -3.6122457,3.6648196 0,0.02063 0.3408802,0.382811 0.7575113,0.804842 2.8917134,2.92919 5.8461864,5.940829 6.3326964,6.455226 0.222107,0.234838 0.284979,0.31989 0.3793,0.513107 0.140393,0.287599 0.189556,0.524551 0.189556,0.913609 0,0.356688 -0.03576,0.513722 -0.187374,0.822842 -0.256072,0.522092 -0.647629,0.87318 -1.139237,1.021492 -0.136781,0.04127 -0.592571,0.07368 -0.688273,0.04895 z"
     id="path2612"
     inkscape:connector-curvature="0" />
  <path
     style="opacity:1;fill:#00bfec;fill-opacity:0.94117647;stroke:#02b6e0;stroke-width:0.0006622;stroke-miterlimit:4;stroke-dasharray:none;stroke-opacity:1"
     d="m 14.081739,21.074678 c -0.164165,-0.0495 -0.405163,-0.153776 -0.600711,-0.259919 -0.09244,-0.05018 -1.286793,-1.230993 -4.5698725,-4.518084 C 6.4665572,13.849089 4.4264487,11.790203 4.3775809,11.721371 4.2551748,11.54896 4.1480582,11.328882 4.0786804,11.107264 4.0292889,10.949488 4.0202904,10.86786 4.0208343,10.582524 4.0215607,10.201495 4.0566528,10.029321 4.1917331,9.7440314 4.3611801,9.3861596 4.1451893,9.6125218 9.0160631,4.688048 13.415419,0.2402803 13.371722,0.28232636 13.737943,0.14454782 14.092167,0.01128306 14.692944,-0.017797 15.02035,0.08247419 c 0.191456,0.05863532 0.512529,0.22200574 0.670065,0.340946 0.237634,0.17941555 0.458394,0.51808527 0.569136,0.87311421 0.06344,0.2033746 0.07887,0.7823755 0.02734,1.0253338 -0.0455,0.2144746 -0.175134,0.5026332 -0.306851,0.6820685 -0.04991,0.067983 -1.700673,1.7418444 -3.668375,3.719691 -1.967701,1.9778467 -3.6176695,3.6441113 -3.6665964,3.7028093 l -0.088958,0.106725 0.1338154,0.143571 c 0.073598,0.07897 1.1537221,1.179798 2.400275,2.446297 2.680642,2.723535 4.255361,4.33235 4.588689,4.688044 0.402574,0.429586 0.542886,0.791515 0.542886,1.400355 0,0.355946 -0.0358,0.513835 -0.185899,0.819777 -0.336163,0.685209 -0.858416,1.051129 -1.538848,1.078206 -0.206981,0.0082 -0.298035,6.2e-4 -0.415285,-0.03473 z"
     id="path2614"
     inkscape:connector-curvature="0" />
  <path
     style="opacity:1;fill:#00bfec;fill-opacity:0.94117647;stroke:#00bfec;stroke-width:0.37795276;stroke-miterlimit:4;stroke-dasharray:none;stroke-opacity:1"
     d="m 14.081739,21.073983 c -0.189088,-0.05767 -0.432806,-0.161693 -0.598158,-0.255307 -0.09178,-0.05196 -1.37788,-1.323941 -4.5724255,-4.522227 -2.4445983,-2.447461 -4.4847068,-4.506246 -4.5335746,-4.575078 -0.1222322,-0.172167 -0.229411,-0.392239 -0.29908,-0.614107 -0.04973,-0.158369 -0.058519,-0.23833 -0.057683,-0.52474 0.00111,-0.381144 0.036448,-0.554498 0.1709157,-0.8384926 C 4.3620764,9.3842666 4.1483706,9.6084046 8.9288669,4.7756517 12.381721,1.2850543 13.165396,0.50424146 13.369886,0.35085291 13.668289,0.12701937 14.035729,0.0200237 14.506004,0.0200237 c 0.579808,0 1.153402,0.27216509 1.466145,0.6956727 0.24079,0.3260703 0.348872,0.6843641 0.348872,1.1565192 0,0.3652996 -0.04558,0.5796197 -0.184491,0.8674794 -0.138008,0.2859904 0.06252,0.07738 -4.158503,4.326167 -1.777923,1.7896179 -3.2753428,3.302086 -3.3275998,3.361039 l -0.095013,0.107189 0.2101412,0.218034 c 0.1155775,0.119919 1.2127534,1.237439 2.4381686,2.483377 2.713017,2.758455 4.183481,4.261897 4.488198,4.588857 0.389247,0.417658 0.529849,0.785736 0.529849,1.387071 0,0.337475 -0.03518,0.506533 -0.16091,0.773155 -0.253646,0.537897 -0.607641,0.877354 -1.087367,1.042708 -0.282063,0.09722 -0.661012,0.117064 -0.891755,0.04669 z"
     id="path2616"
     inkscape:connector-curvature="0" />
</svg>
